<svg xmlns="http://www.w3.org/2000/svg" viewBox="-8 -8 112 112"><g fill="#ececec"><path fill-rule="evenodd" d="M1.807 36.636 L33.807 2.35A3 3 0 0 1 38.193 2.35L68.838 35.183A3 3 0 0 1 68.838 39.277L48.748 60.802A3 3 0 0 1 44.181 60.589L36.901 51.166A3 3 0 0 0 34.527 50L20 50A3 3 0 0 0 17 53L17 69A3 3 0 0 1 14 72L4 72A3 3 0 0 1 1 69L1 38.682A3 3 0 0 1 1.807 36.636Z M26.302 32.991 L35.561 23.07A0.6 0.6 0 0 1 36.439 23.07L45.698 32.991A0.6 0.6 0 0 1 45.259 34L26.741 34A0.6 0.6 0 0 1 26.302 32.991Z" transform="translate(0 0)"/><path d="M22 53H33Q35 53 37 56L45 66Q46 68 48 66L76 36Q79 33 82 34Q86 35 86 40V48Q86 51 83 54L51.266666666666666 88Q46.63333333333333 94 42 88L22 62Q20 59 20 56Q20 53 22 53Z" transform="translate(0 0)"/></g></svg>
